<?xml version="1.0" standalone="no"?>
<!DOCTYPE svg PUBLIC "-//W3C//DTD SVG 20010904//EN"
 "http://www.w3.org/TR/2001/REC-SVG-20010904/DTD/svg10.dtd">
<svg version="1.0" xmlns="http://www.w3.org/2000/svg"
 width="204.000000pt" height="192.000000pt" viewBox="0 0 204.000000 192.000000"
 preserveAspectRatio="xMidYMid meet">
<g transform="translate(0.000000,192.000000) scale(0.100000,-0.100000)"
fill="#000000" stroke="none">
<path d="M915 1904 c-11 -3 -55 -19 -99 -36 -250 -99 -367 -395 -256 -646 30
-68 98 -150 162 -198 164 -120 406 -119 568 2 244 184 267 526 50 745 -84 85
-180 125 -316 133 -49 3 -98 3 -109 0z m158 -44 c246 -40 410 -268 369 -512
-24 -136 -126 -276 -243 -331 -117 -55 -269 -56 -387 -2 -62 28 -154 112 -189
173 -144 246 -36 555 227 651 93 33 129 37 223 21z"/>
<path d="M895 1760 c-107 -35 -158 -106 -157 -217 2 -172 125 -419 232 -463
43 -18 137 -8 192 19 73 37 173 133 204 198 38 78 46 199 16 266 -31 69 -105
142 -181 179 -86 41 -213 49 -306 18z m285 -52 c65 -29 138 -97 164 -152 15
-31 17 -55 14 -120 -6 -101 -28 -148 -106 -222 -119 -112 -240 -136 -319 -62
-62 59 -131 211 -152 340 -21 124 13 189 120 228 75 28 201 23 279 -12z"/>
<path d="M350 967 c-104 -38 -146 -64 -206 -124 -77 -78 -118 -162 -138 -283
l-6 -35 19 23 c11 12 27 46 37 74 42 127 127 226 236 278 97 46 156 56 252 42
161 -23 283 -110 349 -250 31 -64 32 -72 32 -192 0 -120 -1 -127 -32 -190 -81
-167 -225 -255 -413 -254 -78 0 -92 3 -173 42 -48 22 -105 58 -127 79 -49 48
-106 142 -126 209 -14 51 -38 93 -47 84 -9 -10 25 -145 50 -193 29 -59 111
-149 167 -184 81 -52 164 -76 261 -75 200 0 355 96 442 272 33 69 37 84 41
182 5 128 -15 209 -77 305 -39 60 -122 136 -171 155 -104 42 -133 50 -215 54
-78 4 -99 2 -155 -19z"/>
<path d="M1442 979 c-127 -25 -268 -136 -326 -257 -96 -203 -61 -410 96 -566
62 -62 85 -77 158 -106 75 -30 96 -34 180 -35 105 0 173 20 263 77 91 58 174
173 203 282 18 65 18 196 0 261 -56 212 -253 358 -475 354 -31 -1 -75 -5 -99
-10z m200 -40 c77 -16 180 -74 233 -130 52 -56 96 -143 122 -240 16 -63 16
-69 -2 -134 -48 -179 -147 -297 -297 -355 -75 -29 -90 -32 -163 -27 -117 7
-200 44 -287 125 -81 76 -124 155 -139 257 -48 305 229 567 533 504z"/>
<path d="M1446 846 c-61 -23 -89 -47 -119 -107 -28 -52 -29 -58 -23 -154 17
-312 129 -471 305 -436 275 55 428 329 296 528 -44 66 -118 125 -192 154 -74
28 -210 36 -267 15z m215 -40 c69 -21 107 -43 162 -94 71 -67 92 -112 91 -197
-1 -88 -17 -125 -84 -198 -37 -41 -72 -67 -124 -91 -97 -46 -154 -53 -210 -27
-72 35 -111 109 -140 270 -47 249 8 348 194 350 36 0 86 -6 111 -13z"/>
<path d="M408 855 c-66 -18 -111 -48 -144 -97 -27 -40 -29 -50 -29 -133 0
-151 65 -341 142 -418 66 -67 169 -76 270 -26 76 38 173 131 210 202 24 45 28
63 28 142 0 105 -11 130 -89 213 -61 65 -121 97 -217 117 -83 18 -108 18 -171
0z m205 -50 c70 -21 108 -43 159 -93 61 -59 82 -119 76 -213 -6 -80 -32 -131
-105 -201 -100 -97 -219 -133 -303 -90 -78 38 -156 226 -167 397 -5 83 -3 93
18 124 64 92 179 119 322 76z"/>
</g>
</svg>
